<svg xmlns="http://www.w3.org/2000/svg" width="300" height="300" viewBox="0 0 300 300" role="img" aria-label="Dog">
  <rect width="300" height="300" rx="64" fill="#FFF4D6"/>
  <circle cx="250" cy="49" r="42" fill="#F59E0B" opacity="0.16"/>
  <circle cx="44" cy="247" r="54" fill="#00C2E4" opacity="0.24"/>
  
  <path d="M94 155 C94 118, 119 93, 150 93 C181 93, 206 118, 206 155 C206 190, 182 216, 150 216 C118 216, 94 190, 94 155Z" fill="white"/>
  <path d="M103 111 L86 78 L128 94 M197 111 L214 78 L172 94" fill="#00C2E4" stroke="#123040" stroke-width="8" stroke-linejoin="round"/>
  <circle cx="126" cy="151" r="8" fill="#123040"/>
  <circle cx="174" cy="151" r="8" fill="#123040"/>
  <path d="M145 173 Q150 181 155 173" stroke="#123040" stroke-width="7" stroke-linecap="round" fill="none"/>
  <path d="M112 192 C130 207, 170 207, 188 192" stroke="#F59E0B" stroke-width="10" stroke-linecap="round" fill="none"/>

  <rect x="46" y="42" width="104" height="34" rx="17" fill="white" opacity="0.9"/>
  <text x="98" y="64" text-anchor="middle" font-family="Nunito, Arial, sans-serif" font-size="11" font-weight="900" fill="#F59E0B">VOCABULARY</text>
  <text x="150" y="244" text-anchor="middle" font-family="Nunito, Arial, sans-serif" font-size="21" font-weight="1000" fill="#123040">Dog</text>
  <text x="150" y="269" text-anchor="middle" font-family="Nunito, Arial, sans-serif" font-size="12" font-weight="800" fill="#123040" opacity="0.58">Dog</text>
</svg>
