<svg xmlns="http://www.w3.org/2000/svg" width="300" height="300" viewBox="0 0 300 300" role="img" aria-label="Graduate">
  <rect width="300" height="300" rx="64" fill="#E0F7F3"/>
  <circle cx="250" cy="49" r="42" fill="#14B8A6" opacity="0.16"/>
  <circle cx="44" cy="247" r="54" fill="#FB7185" opacity="0.24"/>
  
  <path d="M82 105 C105 92, 129 92, 150 108 C171 92, 195 92, 218 105 V211 C194 199, 171 200, 150 216 C129 200, 106 199, 82 211Z" fill="white" stroke="#123040" stroke-width="8" stroke-linejoin="round"/>
  <path d="M150 108 V216" stroke="#123040" stroke-width="7" stroke-linecap="round"/>
  <path d="M101 130 H132 M101 153 H132 M168 130 H199 M168 153 H199" stroke="#14B8A6" stroke-width="8" stroke-linecap="round"/>
  <circle cx="220" cy="86" r="17" fill="#FB7185"/>

  <rect x="46" y="42" width="104" height="34" rx="17" fill="white" opacity="0.9"/>
  <text x="98" y="64" text-anchor="middle" font-family="Nunito, Arial, sans-serif" font-size="11" font-weight="900" fill="#14B8A6">VOCABULARY</text>
  <text x="150" y="244" text-anchor="middle" font-family="Nunito, Arial, sans-serif" font-size="21" font-weight="1000" fill="#123040">Graduate</text>
  <text x="150" y="269" text-anchor="middle" font-family="Nunito, Arial, sans-serif" font-size="12" font-weight="800" fill="#123040" opacity="0.58">Graduate</text>
</svg>
